<svg width="63" height="63" viewBox="0 0 63 63" fill="none" xmlns="http://www.w3.org/2000/svg">
<path d="M15.8003 44.5413C18.0047 42.8555 20.4685 41.5263 23.1917 40.5538C25.9148 39.5812 28.7676 39.095 31.7501 39.095C34.7326 39.095 37.5854 39.5812 40.3086 40.5538C43.0317 41.5263 45.4955 42.8555 47.6999 44.5413C49.2128 42.7691 50.3907 40.7591 51.2335 38.5114C52.0764 36.2638 52.4979 33.8648 52.4979 31.3146C52.4979 25.5657 50.4771 20.6705 46.4356 16.6291C42.3941 12.5876 37.499 10.5668 31.7501 10.5668C26.0013 10.5668 21.1061 12.5876 17.0646 16.6291C13.0231 20.6705 11.0024 25.5657 11.0024 31.3146C11.0024 33.8648 11.4238 36.2638 12.2667 38.5114C13.1096 40.7591 14.2874 42.7691 15.8003 44.5413ZM31.7501 33.908C29.1999 33.908 27.0495 33.0327 25.2989 31.2821C23.5483 29.5316 22.673 27.3811 22.673 24.8309C22.673 22.2807 23.5483 20.1302 25.2989 18.3796C27.0495 16.6291 29.1999 15.7538 31.7501 15.7538C34.3004 15.7538 36.4508 16.6291 38.2014 18.3796C39.952 20.1302 40.8273 22.2807 40.8273 24.8309C40.8273 27.3811 39.952 29.5316 38.2014 31.2821C36.4508 33.0327 34.3004 33.908 31.7501 33.908ZM31.7501 57.2493C28.1625 57.2493 24.791 56.5685 21.6356 55.2069C18.4802 53.8453 15.7354 51.9975 13.4013 49.6634C11.0672 47.3292 9.21936 44.5845 7.85779 41.4291C6.49622 38.2737 5.81543 34.9022 5.81543 31.3146C5.81543 27.7269 6.49622 24.3554 7.85779 21.2C9.21936 18.0447 11.0672 15.2999 13.4013 12.9658C15.7354 10.6317 18.4802 8.78381 21.6356 7.42224C24.791 6.06067 28.1625 5.37988 31.7501 5.37988C35.3377 5.37988 38.7093 6.06067 41.8646 7.42224C45.02 8.78381 47.7648 10.6317 50.0989 12.9658C52.433 15.2999 54.2809 18.0447 55.6424 21.2C57.004 24.3554 57.6848 27.7269 57.6848 31.3146C57.6848 34.9022 57.004 38.2737 55.6424 41.4291C54.2809 44.5845 52.433 47.3292 50.0989 49.6634C47.7648 51.9975 45.02 53.8453 41.8646 55.2069C38.7093 56.5685 35.3377 57.2493 31.7501 57.2493Z" fill="white"/>
</svg>
